<?xml version="1.0" standalone="no"?>
<!DOCTYPE svg PUBLIC "-//W3C//DTD SVG 20010904//EN"
 "http://www.w3.org/TR/2001/REC-SVG-20010904/DTD/svg10.dtd">
<svg version="1.0" xmlns="http://www.w3.org/2000/svg"
 width="72.000000pt" height="72.000000pt" viewBox="0 0 72.000000 72.000000"
 preserveAspectRatio="xMidYMid meet">

<g transform="translate(0.000000,72.000000) scale(0.100000,-0.100000)"
fill="#000000" stroke="none">
<path d="M144 655 c-4 -10 -14 -15 -25 -12 -11 3 -17 1 -13 -4 3 -5 1 -9 -5
-9 -7 0 -7 -8 -1 -22 5 -13 11 -35 14 -50 7 -33 15 -35 42 -10 11 10 26 16 33
14 11 -4 12 0 6 14 -4 11 -10 34 -14 53 -7 38 -27 52 -37 26z"/>
<path d="M499 646 c8 -10 8 -21 1 -40 -13 -35 -13 -35 10 -29 29 8 37 50 14
68 -24 18 -40 19 -25 1z"/>
<path d="M435 580 c-3 -5 -4 -14 0 -19 3 -5 1 -12 -5 -16 -5 -3 -10 -21 -10
-39 0 -36 31 -66 68 -66 10 0 24 -6 31 -12 11 -11 13 -10 8 4 -3 9 -2 29 2 45
4 15 6 34 4 41 -7 20 -91 73 -98 62z"/>
<path d="M227 509 c-14 -8 -16 -14 -6 -25 14 -17 35 -18 45 -3 11 18 -18 39
-39 28z"/>
<path d="M305 317 c-27 -20 -13 -82 23 -102 l27 -14 -25 -2 c-84 -7 -80 -8
-99 35 -16 34 -19 37 -20 17 -1 -33 48 -98 61 -80 6 9 7 5 3 -12 -9 -36 36
-89 74 -89 36 0 67 34 62 68 -1 15 0 24 5 20 4 -4 15 2 25 14 24 27 24 36 0
14 -16 -15 -19 -15 -24 -1 -4 8 -19 15 -34 15 l-28 1 26 14 c35 19 49 83 23
102 -23 17 -75 17 -99 0z"/>
</g>
</svg>
